<?xml version="1.0" standalone="no"?>
<svg xmlns:xlink="http://www.w3.org/1999/xlink" id="wave" style="transform:rotate(180deg); transition: 0.3s" viewBox="0 0 1440 130" version="1.1" xmlns="http://www.w3.org/2000/svg"><defs><linearGradient id="sw-gradient-0" x1="0" x2="0" y1="1" y2="0"><stop stop-color="rgba(0, 0, 0, 1)" offset="0%"/><stop stop-color="rgba(0, 0, 0, 1)" offset="100%"/></linearGradient></defs><path style="transform:translate(0, 0px); opacity:1" fill="url(#sw-gradient-0)" d="M0,26L120,41.2C240,56,480,87,720,84.5C960,82,1200,48,1440,45.5C1680,43,1920,74,2160,88.8C2400,104,2640,104,2880,86.7C3120,69,3360,35,3600,23.8C3840,13,4080,26,4320,34.7C4560,43,4800,48,5040,52C5280,56,5520,61,5760,69.3C6000,78,6240,91,6480,91C6720,91,6960,78,7200,73.7C7440,69,7680,74,7920,62.8C8160,52,8400,26,8640,15.2C8880,4,9120,9,9360,8.7C9600,9,9840,4,10080,8.7C10320,13,10560,26,10800,26C11040,26,11280,13,11520,23.8C11760,35,12000,69,12240,73.7C12480,78,12720,52,12960,45.5C13200,39,13440,52,13680,65C13920,78,14160,91,14400,91C14640,91,14880,78,15120,65C15360,52,15600,39,15840,41.2C16080,43,16320,61,16560,73.7C16800,87,17040,95,17160,99.7L17280,104L17280,130L17160,130C17040,130,16800,130,16560,130C16320,130,16080,130,15840,130C15600,130,15360,130,15120,130C14880,130,14640,130,14400,130C14160,130,13920,130,13680,130C13440,130,13200,130,12960,130C12720,130,12480,130,12240,130C12000,130,11760,130,11520,130C11280,130,11040,130,10800,130C10560,130,10320,130,10080,130C9840,130,9600,130,9360,130C9120,130,8880,130,8640,130C8400,130,8160,130,7920,130C7680,130,7440,130,7200,130C6960,130,6720,130,6480,130C6240,130,6000,130,5760,130C5520,130,5280,130,5040,130C4800,130,4560,130,4320,130C4080,130,3840,130,3600,130C3360,130,3120,130,2880,130C2640,130,2400,130,2160,130C1920,130,1680,130,1440,130C1200,130,960,130,720,130C480,130,240,130,120,130L0,130Z"/></svg>