<?xml version="1.0" standalone="no"?>
<svg xmlns:xlink="http://www.w3.org/1999/xlink" id="wave" style="transform:rotate(180deg); transition: 0.3s" viewBox="0 0 1440 330" version="1.1" xmlns="http://www.w3.org/2000/svg"><defs><linearGradient id="sw-gradient-0" x1="0" x2="0" y1="1" y2="0"><stop stop-color="rgba(255, 218, 7, 1)" offset="0%"/><stop stop-color="rgba(255, 218, 7, 1)" offset="100%"/></linearGradient></defs><path style="transform:translate(0, 0px); opacity:1" fill="url(#sw-gradient-0)" d="M0,231L120,220C240,209,480,187,720,192.5C960,198,1200,231,1440,214.5C1680,198,1920,132,2160,93.5C2400,55,2640,44,2880,60.5C3120,77,3360,121,3600,148.5C3840,176,4080,187,4320,198C4560,209,4800,220,5040,231C5280,242,5520,253,5760,258.5C6000,264,6240,264,6480,247.5C6720,231,6960,198,7200,176C7440,154,7680,143,7920,121C8160,99,8400,66,8640,66C8880,66,9120,99,9360,115.5C9600,132,9840,132,10080,115.5C10320,99,10560,66,10800,93.5C11040,121,11280,209,11520,247.5C11760,286,12000,275,12240,231C12480,187,12720,110,12960,88C13200,66,13440,99,13680,110C13920,121,14160,110,14400,104.5C14640,99,14880,99,15120,99C15360,99,15600,99,15840,88C16080,77,16320,55,16560,77C16800,99,17040,165,17160,198L17280,231L17280,330L17160,330C17040,330,16800,330,16560,330C16320,330,16080,330,15840,330C15600,330,15360,330,15120,330C14880,330,14640,330,14400,330C14160,330,13920,330,13680,330C13440,330,13200,330,12960,330C12720,330,12480,330,12240,330C12000,330,11760,330,11520,330C11280,330,11040,330,10800,330C10560,330,10320,330,10080,330C9840,330,9600,330,9360,330C9120,330,8880,330,8640,330C8400,330,8160,330,7920,330C7680,330,7440,330,7200,330C6960,330,6720,330,6480,330C6240,330,6000,330,5760,330C5520,330,5280,330,5040,330C4800,330,4560,330,4320,330C4080,330,3840,330,3600,330C3360,330,3120,330,2880,330C2640,330,2400,330,2160,330C1920,330,1680,330,1440,330C1200,330,960,330,720,330C480,330,240,330,120,330L0,330Z"/></svg>