<?xml version="1.0" standalone="no"?>
<svg xmlns:xlink="http://www.w3.org/1999/xlink" id="wave" style="transform:rotate(180deg); transition: 0.3s" viewBox="0 0 1440 130" version="1.1" xmlns="http://www.w3.org/2000/svg"><defs><linearGradient id="sw-gradient-0" x1="0" x2="0" y1="1" y2="0"><stop stop-color="rgba(0, 0, 0, 1)" offset="0%"/><stop stop-color="rgba(0, 0, 0, 1)" offset="100%"/></linearGradient></defs><path style="transform:translate(0, 0px); opacity:1" fill="url(#sw-gradient-0)" d="M0,26L240,41.2C480,56,960,87,1440,84.5C1920,82,2400,48,2880,45.5C3360,43,3840,74,4320,88.8C4800,104,5280,104,5760,86.7C6240,69,6720,35,7200,23.8C7680,13,8160,26,8640,34.7C9120,43,9600,48,10080,52C10560,56,11040,61,11520,69.3C12000,78,12480,91,12960,91C13440,91,13920,78,14400,73.7C14880,69,15360,74,15840,62.8C16320,52,16800,26,17280,15.2C17760,4,18240,9,18720,8.7C19200,9,19680,4,20160,8.7C20640,13,21120,26,21600,26C22080,26,22560,13,23040,23.8C23520,35,24000,69,24480,73.7C24960,78,25440,52,25920,45.5C26400,39,26880,52,27360,65C27840,78,28320,91,28800,91C29280,91,29760,78,30240,65C30720,52,31200,39,31680,41.2C32160,43,32640,61,33120,73.7C33600,87,34080,95,34320,99.7L34560,104L34560,130L34320,130C34080,130,33600,130,33120,130C32640,130,32160,130,31680,130C31200,130,30720,130,30240,130C29760,130,29280,130,28800,130C28320,130,27840,130,27360,130C26880,130,26400,130,25920,130C25440,130,24960,130,24480,130C24000,130,23520,130,23040,130C22560,130,22080,130,21600,130C21120,130,20640,130,20160,130C19680,130,19200,130,18720,130C18240,130,17760,130,17280,130C16800,130,16320,130,15840,130C15360,130,14880,130,14400,130C13920,130,13440,130,12960,130C12480,130,12000,130,11520,130C11040,130,10560,130,10080,130C9600,130,9120,130,8640,130C8160,130,7680,130,7200,130C6720,130,6240,130,5760,130C5280,130,4800,130,4320,130C3840,130,3360,130,2880,130C2400,130,1920,130,1440,130C960,130,480,130,240,130L0,130Z"/></svg>