<?xml version="1.0" standalone="no"?>
<svg xmlns:xlink="http://www.w3.org/1999/xlink" id="wave" style="transform:rotate(0deg); transition: 0.3s" viewBox="0 0 1440 130" version="1.1" xmlns="http://www.w3.org/2000/svg"><defs><linearGradient id="sw-gradient-0" x1="0" x2="0" y1="1" y2="0"><stop stop-color="rgba(255, 255, 255, 1)" offset="0%"/><stop stop-color="rgba(255, 255, 255, 1)" offset="100%"/></linearGradient></defs><path style="transform:translate(0, 0px); opacity:1" fill="url(#sw-gradient-0)" d="M0,52L80,52C160,52,320,52,480,60.7C640,69,800,87,960,91C1120,95,1280,87,1440,80.2C1600,74,1760,69,1920,58.5C2080,48,2240,30,2400,34.7C2560,39,2720,65,2880,67.2C3040,69,3200,48,3360,32.5C3520,17,3680,9,3840,23.8C4000,39,4160,78,4320,84.5C4480,91,4640,65,4800,49.8C4960,35,5120,30,5280,32.5C5440,35,5600,43,5760,49.8C5920,56,6080,61,6240,60.7C6400,61,6560,56,6720,45.5C6880,35,7040,17,7200,28.2C7360,39,7520,78,7680,97.5C7840,117,8000,117,8160,106.2C8320,95,8480,74,8640,58.5C8800,43,8960,35,9120,30.3C9280,26,9440,26,9600,41.2C9760,56,9920,87,10080,101.8C10240,117,10400,117,10560,97.5C10720,78,10880,39,11040,34.7C11200,30,11360,61,11440,75.8L11520,91L11520,130L11440,130C11360,130,11200,130,11040,130C10880,130,10720,130,10560,130C10400,130,10240,130,10080,130C9920,130,9760,130,9600,130C9440,130,9280,130,9120,130C8960,130,8800,130,8640,130C8480,130,8320,130,8160,130C8000,130,7840,130,7680,130C7520,130,7360,130,7200,130C7040,130,6880,130,6720,130C6560,130,6400,130,6240,130C6080,130,5920,130,5760,130C5600,130,5440,130,5280,130C5120,130,4960,130,4800,130C4640,130,4480,130,4320,130C4160,130,4000,130,3840,130C3680,130,3520,130,3360,130C3200,130,3040,130,2880,130C2720,130,2560,130,2400,130C2240,130,2080,130,1920,130C1760,130,1600,130,1440,130C1280,130,1120,130,960,130C800,130,640,130,480,130C320,130,160,130,80,130L0,130Z"/></svg>